# xmcd
#
# Track frame offsets:
#	150
#	18382
#	42825
#	67210
#
# Disc length: 1158 seconds
# Revision: 0
# Processed by: cddbd v1.5.2PL0 Copyright (c) Steve Scherf et al.
# Submitted via: dBpowerAMP V12.0
#
DISCID=31048404
DTITLE=The Nightcrawlers feat. John Reid - Living Inside A Dream
DYEAR=1992
DGENRE=Acid Jazz
TTITLE0=Living Inside A Dream [Radio Edit]
TTITLE1=Living Inside A Dream [Absolute Mix]
TTITLE2=Living Inside A Dream [Absolute Instrumental]
TTITLE3=Living Inside A Dream [Fusionic Mix]
EXTD=
EXTT0=
EXTT1=
EXTT2=
EXTT3=
PLAYORDER=
